ffmpeg version 5.1.2-essentials_build-www.gyan.dev Copyright (c) 2000-2022 the FFmpeg developers
  built with gcc 12.1.0 (Rev2, Built by MSYS2 project)
  configuration: --enable-gpl --enable-version3 --enable-static --disable-w32threads --disable-autodetect --enable-fontconfig --enable-iconv --enable-gnutls --enable-libxml2 --enable-gmp --enable-lzma --enable-zlib --enable-libsrt --enable-libssh --enable-libzmq --enable-avisynth --enable-sdl2 --enable-libwebp --enable-libx264 --enable-libx265 --enable-libxvid --enable-libaom --enable-libopenjpeg --enable-libvpx --enable-libass --enable-libfreetype --enable-libfribidi --enable-libvidstab --enable-libvmaf --enable-libzimg --enable-amf --enable-cuda-llvm --enable-cuvid --enable-ffnvcodec --enable-nvdec --enable-nvenc --enable-d3d11va --enable-dxva2 --enable-libmfx --enable-libgme --enable-libopenmpt --enable-libopencore-amrwb --enable-libmp3lame --enable-libtheora --enable-libvo-amrwbenc --enable-libgsm --enable-libopencore-amrnb --enable-libopus --enable-libspeex --enable-libvorbis --enable-librubberband
  libavutil      57. 28.100 / 57. 28.100
  libavcodec     59. 37.100 / 59. 37.100
  libavformat    59. 27.100 / 59. 27.100
  libavdevice    59.  7.100 / 59.  7.100
  libavfilter     8. 44.100 /  8. 44.100
  libswscale      6.  7.100 /  6.  7.100
  libswresample   4.  7.100 /  4.  7.100
  libpostproc    56.  6.100 / 56.  6.100
Splitting the commandline.
Reading option '-v' ... matched as option 'v' (set logging level) with argument 'debug'.
Reading option '-nostdin' ... matched as option 'stdin' (enable or disable interaction on standard input) with argument 0.
Reading option '-progress' ... matched as option 'progress' (write program-readable progress information) with argument 'C:/Users/silva/AppData/Local/Temp/KritaFFmpegProgress.mgJpwo'.
Reading option '-r' ... matched as option 'r' (set frame rate (Hz value, fraction or abbreviation)) with argument '24'.
Reading option '-start_number' ... matched as AVOption 'start_number' with argument '0'.
Reading option '-i' ... matched as input url with argument 'C:/Users/silva/OneDrive/Documentos/Desenhos/Krita Projects/Animações/frame%04d.png'.
Reading option '-i' ... matched as input url with argument 'C:/Users/silva/OneDrive/Documentos/Desenhos/Krita Projects/Animações/palette.png'.
Reading option '-lavfi' ... matched as option 'lavfi' (create a complex filtergraph) with argument '[0:v][1:v] paletteuse'.
Reading option '-y' ... matched as option 'y' (overwrite output files) with argument '1'.
Reading option 'C:/Users/silva/OneDrive/Documentos/Desenhos/Krita Projects/Animações/Alex_idle_2.gif' ... matched as output url.
Finished splitting the commandline.
Parsing a group of options: global .
Applying option v (set logging level) with argument debug.
Applying option nostdin (enable or disable interaction on standard input) with argument 0.
Applying option progress (write program-readable progress information) with argument C:/Users/silva/AppData/Local/Temp/KritaFFmpegProgress.mgJpwo.
[file @ 000001a64d70ee80] Setting default whitelist 'file,crypto,data'
Applying option lavfi (create a complex filtergraph) with argument [0:v][1:v] paletteuse.
Applying option y (overwrite output files) with argument 1.
Successfully parsed a group of options.
Parsing a group of options: input url C:/Users/silva/OneDrive/Documentos/Desenhos/Krita Projects/Animações/frame%04d.png.
Applying option r (set frame rate (Hz value, fraction or abbreviation)) with argument 24.
Successfully parsed a group of options.
Opening an input file: C:/Users/silva/OneDrive/Documentos/Desenhos/Krita Projects/Animações/frame%04d.png.
[image2 @ 000001a64d74f480] Opening 'C:/Users/silva/OneDrive/Documentos/Desenhos/Krita Projects/Animações/frame0000.png' for reading
[file @ 000001a64d752a00] Setting default whitelist 'file,crypto,data'
[AVIOContext @ 000001a64d75ab80] Statistics: 617833 bytes read, 0 seeks
[image2 @ 000001a64d74f480] Opening 'C:/Users/silva/OneDrive/Documentos/Desenhos/Krita Projects/Animações/frame0001.png' for reading
[file @ 000001a64d877040] Setting default whitelist 'file,crypto,data'
[AVIOContext @ 000001a64d8777c0] Statistics: 617833 bytes read, 0 seeks
[image2 @ 000001a64d74f480] Opening 'C:/Users/silva/OneDrive/Documentos/Desenhos/Krita Projects/Animações/frame0002.png' for reading
[file @ 000001a64d8777c0] Setting default whitelist 'file,crypto,data'
[AVIOContext @ 000001a64d90e740] Statistics: 617833 bytes read, 0 seeks
[image2 @ 000001a64d74f480] Opening 'C:/Users/silva/OneDrive/Documentos/Desenhos/Krita Projects/Animações/frame0003.png' for reading
[file @ 000001a64d90e740] Setting default whitelist 'file,crypto,data'
[AVIOContext @ 000001a64d9a57c0] Statistics: 706110 bytes read, 0 seeks
[image2 @ 000001a64d74f480] Opening 'C:/Users/silva/OneDrive/Documentos/Desenhos/Krita Projects/Animações/frame0004.png' for reading
[file @ 000001a64d9a57c0] Setting default whitelist 'file,crypto,data'
[AVIOContext @ 000001a64d9a5980] Statistics: 706110 bytes read, 0 seeks
[image2 @ 000001a64d74f480] Opening 'C:/Users/silva/OneDrive/Documentos/Desenhos/Krita Projects/Animações/frame0005.png' for reading
[file @ 000001a64d9a5980] Setting default whitelist 'file,crypto,data'
[AVIOContext @ 000001a64d9a5b80] Statistics: 706110 bytes read, 0 seeks
[image2 @ 000001a64d74f480] Opening 'C:/Users/silva/OneDrive/Documentos/Desenhos/Krita Projects/Animações/frame0006.png' for reading
[file @ 000001a64d9a5b80] Setting default whitelist 'file,crypto,data'
[AVIOContext @ 000001a64d9a5d40] Statistics: 693843 bytes read, 0 seeks
[image2 @ 000001a64d74f480] Opening 'C:/Users/silva/OneDrive/Documentos/Desenhos/Krita Projects/Animações/frame0007.png' for reading
[file @ 000001a64d9a5b80] Setting default whitelist 'file,crypto,data'
[AVIOContext @ 000001a64d9a5d40] Statistics: 693843 bytes read, 0 seeks
[image2 @ 000001a64d74f480] Probe buffer size limit of 5000000 bytes reached
Input #0, image2, from 'C:/Users/silva/OneDrive/Documentos/Desenhos/Krita Projects/Animações/frame%04d.png':
  Duration: 00:00:00.96, start: 0.000000, bitrate: N/A
  Stream #0:0, 8, 1/25: Video: png, 1 reference frame, rgba(pc), 2640x2640 [SAR 11811:11811 DAR 1:1], 0/1, 25 fps, 25 tbr, 25 tbn
Successfully opened the file.
Parsing a group of options: input url C:/Users/silva/OneDrive/Documentos/Desenhos/Krita Projects/Animações/palette.png.
Successfully parsed a group of options.
Opening an input file: C:/Users/silva/OneDrive/Documentos/Desenhos/Krita Projects/Animações/palette.png.
[NULL @ 000001a64f7ea200] Opening 'C:/Users/silva/OneDrive/Documentos/Desenhos/Krita Projects/Animações/palette.png' for reading
[file @ 000001a64d74f380] Setting default whitelist 'file,crypto,data'
[png_pipe @ 000001a64f7ea200] Format png_pipe probed with size=2048 and score=99
[png_pipe @ 000001a64f7ea200] Before avformat_find_stream_info() pos: 0 bytes read:1032 seeks:0 nb_streams:1
[png_pipe @ 000001a64f7ea200] After avformat_find_stream_info() pos: 1032 bytes read:1032 seeks:0 frames:1
Input #1, png_pipe, from 'C:/Users/silva/OneDrive/Documentos/Desenhos/Krita Projects/Animações/palette.png':
  Duration: N/A, bitrate: N/A
  Stream #1:0, 1, 1/25: Video: png, 1 reference frame, rgba(pc), 16x16 [SAR 1:1 DAR 1:1], 0/1, 25 fps, 25 tbr, 25 tbn
Successfully opened the file.
Parsing a group of options: output url C:/Users/silva/OneDrive/Documentos/Desenhos/Krita Projects/Animações/Alex_idle_2.gif.
Successfully parsed a group of options.
Opening an output file: C:/Users/silva/OneDrive/Documentos/Desenhos/Krita Projects/Animações/Alex_idle_2.gif.
[file @ 000001a64d753140] Setting default whitelist 'file,crypto,data'
Successfully opened the file.
detected 4 logical cores
Stream mapping:
  Stream #0:0 (png) -> paletteuse
  Stream #1:0 (png) -> paletteuse
  paletteuse:default -> Stream #0:0 (gif)
cur_dts is invalid st:0 (0) [init:0 i_done:0 finish:0] (this is harmless if it occurs once at the start per stream)
    Last message repeated 1 times
[image2 @ 000001a64d74f480] Opening 'C:/Users/silva/OneDrive/Documentos/Desenhos/Krita Projects/Animações/frame0008.png' for reading
[file @ 000001a64d876f80] Setting default whitelist 'file,crypto,data'
[AVIOContext @ 000001a64d7d4940] Statistics: 693843 bytes read, 0 seeks
cur_dts is invalid st:0 (0) [init:0 i_done:0 finish:0] (this is harmless if it occurs once at the start per stream)
    Last message repeated 1 times
[image2 @ 000001a64d74f480] Thread message queue blocking; consider raising the thread_queue_size option (current value: 8)
[image2 @ 000001a64d74f480] Opening 'C:/Users/silva/OneDrive/Documentos/Desenhos/Krita Projects/Animações/frame0009.png' for reading
[file @ 000001a64d876f40] Setting default whitelist 'file,crypto,data'
[AVIOContext @ 000001a64d7d4e40] Statistics: 715751 bytes read, 0 seeks
[image2 @ 000001a64d74f480] Opening 'C:/Users/silva/OneDrive/Documentos/Desenhos/Krita Projects/Animações/frame0010.png' for reading
[file @ 000001a64d876f40] Setting default whitelist 'file,crypto,data'
[AVIOContext @ 000001a64d7d4e40] Statistics: 715751 bytes read, 0 seeks
cur_dts is invalid st:0 (0) [init:0 i_done:0 finish:0] (this is harmless if it occurs once at the start per stream)
[image2 @ 000001a64d74f480] Opening 'C:/Users/silva/OneDrive/Documentos/Desenhos/Krita Projects/Animações/frame0011.png' for reading
[file @ 000001a64d876f40] Setting default whitelist 'file,crypto,data'
[AVIOContext @ 000001a64dbe80c0] Statistics: 715751 bytes read, 0 seeks
cur_dts is invalid st:0 (0) [init:0 i_done:0 finish:0] (this is harmless if it occurs once at the start per stream)
[image2 @ 000001a64d74f480] Opening 'C:/Users/silva/OneDrive/Documentos/Desenhos/Krita Projects/Animações/frame0012.png' for reading
[file @ 000001a64dc97ec0] Setting default whitelist 'file,crypto,data'
[AVIOContext @ 000001a64dbe80c0] Statistics: 673202 bytes read, 0 seeks
cur_dts is invalid st:0 (0) [init:0 i_done:0 finish:0] (this is harmless if it occurs once at the start per stream)
[image2 @ 000001a64d74f480] Opening 'C:/Users/silva/OneDrive/Documentos/Desenhos/Krita Projects/Animações/frame0013.png' for reading
[file @ 000001a64dc97ec0] Setting default whitelist 'file,crypto,data'
[AVIOContext @ 000001a64dbe80c0] Statistics: 673202 bytes read, 0 seeks
cur_dts is invalid st:0 (0) [init:0 i_done:0 finish:0] (this is harmless if it occurs once at the start per stream)
    Last message repeated 1 times
[graph 0 input from stream 0:0 @ 000001a64f80ccc0] Setting 'video_size' to value '2640x2640'
[graph 0 input from stream 0:0 @ 000001a64f80ccc0] Setting 'pix_fmt' to value '26'
[graph 0 input from stream 0:0 @ 000001a64f80ccc0] Setting 'time_base' to value '1/24'
[graph 0 input from stream 0:0 @ 000001a64f80ccc0] Setting 'pixel_aspect' to value '11811/11811'
[graph 0 input from stream 0:0 @ 000001a64f80ccc0] Setting 'frame_rate' to value '24/1'
[graph 0 input from stream 0:0 @ 000001a64f80ccc0] w:2640 h:2640 pixfmt:rgba tb:1/24 fr:24/1 sar:11811/11811
[graph 0 input from stream 1:0 @ 000001a64f80ce80] Setting 'video_size' to value '16x16'
[graph 0 input from stream 1:0 @ 000001a64f80ce80] Setting 'pix_fmt' to value '26'
[graph 0 input from stream 1:0 @ 000001a64f80ce80] Setting 'time_base' to value '1/25'
[graph 0 input from stream 1:0 @ 000001a64f80ce80] Setting 'pixel_aspect' to value '1/1'
[graph 0 input from stream 1:0 @ 000001a64f80ce80] Setting 'frame_rate' to value '25/1'
[graph 0 input from stream 1:0 @ 000001a64f80ce80] w:16 h:16 pixfmt:rgba tb:1/25 fr:25/1 sar:1/1
[format @ 000001a64d9dec80] Setting 'pix_fmts' to value 'rgb8|bgr8|rgb4_byte|bgr4_byte|gray|pal8'
[auto_scale_0 @ 000001a64f80d500] w:iw h:ih flags:'' interl:0
[Parsed_paletteuse_0 @ 000001a64b967e80] auto-inserting filter 'auto_scale_0' between the filter 'graph 0 input from stream 0:0' and the filter 'Parsed_paletteuse_0'
[auto_scale_1 @ 000001a64f80d9c0] w:iw h:ih flags:'' interl:0
[Parsed_paletteuse_0 @ 000001a64b967e80] auto-inserting filter 'auto_scale_1' between the filter 'graph 0 input from stream 1:0' and the filter 'Parsed_paletteuse_0'
[AVFilterGraph @ 000001a64d7b3880] query_formats: 5 queried, 4 merged, 2 already done, 0 delayed
[swscaler @ 000001a64f80e1c0] [swscaler @ 000001a64f81e1c0] Forcing full internal H chroma due to input having non subsampled chroma
[swscaler @ 000001a64f80e1c0] [swscaler @ 000001a64f864ec0] Forcing full internal H chroma due to input having non subsampled chroma
[swscaler @ 000001a64f80e1c0] [swscaler @ 000001a64ddf1980] Forcing full internal H chroma due to input having non subsampled chroma
[swscaler @ 000001a64f80e1c0] [swscaler @ 000001a64de4e040] Forcing full internal H chroma due to input having non subsampled chroma
[swscaler @ 000001a64f80e1c0] [swscaler @ 000001a64de9e040] Forcing full internal H chroma due to input having non subsampled chroma
[auto_scale_0 @ 000001a64f80d500] w:2640 h:2640 fmt:rgba sar:11811/11811 -> w:2640 h:2640 fmt:bgra sar:1/1 flags:0x0
[swscaler @ 000001a64deb3a80] [swscaler @ 000001a64ded54c0] Forcing full internal H chroma due to input having non subsampled chroma
[swscaler @ 000001a64deb3a80] [swscaler @ 000001a64dee2480] Forcing full internal H chroma due to input having non subsampled chroma
[swscaler @ 000001a64deb3a80] [swscaler @ 000001a64deef440] Forcing full internal H chroma due to input having non subsampled chroma
[swscaler @ 000001a64deb3a80] [swscaler @ 000001a64df02480] Forcing full internal H chroma due to input having non subsampled chroma
[swscaler @ 000001a64deb3a80] [swscaler @ 000001a64df15480] Forcing full internal H chroma due to input having non subsampled chroma
[auto_scale_1 @ 000001a64f80d9c0] w:16 h:16 fmt:rgba sar:1/1 -> w:16 h:16 fmt:bgra sar:1/1 flags:0x0
[Parsed_paletteuse_0 @ 000001a64b967e80] [framesync @ 000001a64e1e6088] Selected 1/600 time base
[Parsed_paletteuse_0 @ 000001a64b967e80] [framesync @ 000001a64e1e6088] Sync level 2
[swscaler @ 000001a64f80e1c0] [swscaler @ 000001a64f87c000] Forcing full internal H chroma due to input having non subsampled chroma
[swscaler @ 000001a64f80e1c0] [swscaler @ 000001a64dec6ac0] Forcing full internal H chroma due to input having non subsampled chroma
[swscaler @ 000001a64f80e1c0] [swscaler @ 000001a64de9e040] Forcing full internal H chroma due to input having non subsampled chroma
[swscaler @ 000001a64f80e1c0] [swscaler @ 000001a64de3c840] Forcing full internal H chroma due to input having non subsampled chroma
[swscaler @ 000001a64f80e1c0] [swscaler @ 000001a64f855540] Forcing full internal H chroma due to input having non subsampled chroma
[auto_scale_0 @ 000001a64f80d500] w:2640 h:2640 fmt:rgba sar:11811/11811 -> w:2640 h:2640 fmt:bgra sar:1/1 flags:0x0
[swscaler @ 000001a64f80e1c0] [swscaler @ 000001a64f87c000] Forcing full internal H chroma due to input having non subsampled chroma
[swscaler @ 000001a64f80e1c0] [swscaler @ 000001a64f828780] Forcing full internal H chroma due to input having non subsampled chroma
[swscaler @ 000001a64f80e1c0] [swscaler @ 000001a64f83f300] Forcing full internal H chroma due to input having non subsampled chroma
[swscaler @ 000001a64f80e1c0] [swscaler @ 000001a64f85fb00] Forcing full internal H chroma due to input having non subsampled chroma
[swscaler @ 000001a64f80e1c0] [swscaler @ 000001a64dde72c0] Forcing full internal H chroma due to input having non subsampled chroma
[auto_scale_0 @ 000001a64f80d500] w:2640 h:2640 fmt:rgba sar:11811/11811 -> w:2640 h:2640 fmt:bgra sar:1/1 flags:0x0
[swscaler @ 000001a64f80e1c0] [swscaler @ 000001a64f87c000] Forcing full internal H chroma due to input having non subsampled chroma
[swscaler @ 000001a64f80e1c0] [swscaler @ 000001a64f83de00] Forcing full internal H chroma due to input having non subsampled chroma
[swscaler @ 000001a64f80e1c0] [swscaler @ 000001a64f81e1c0] Forcing full internal H chroma due to input having non subsampled chroma
[swscaler @ 000001a64f80e1c0] [swscaler @ 000001a64de3c840] Forcing full internal H chroma due to input having non subsampled chroma
[swscaler @ 000001a64f80e1c0] [swscaler @ 000001a64f855540] Forcing full internal H chroma due to input having non subsampled chroma
[auto_scale_0 @ 000001a64f80d500] w:2640 h:2640 fmt:rgba sar:11811/11811 -> w:2640 h:2640 fmt:bgra sar:1/1 flags:0x0
[swscaler @ 000001a64ddfbd00] [swscaler @ 000001a64deb2dc0] Forcing full internal H chroma due to input having non subsampled chroma
[swscaler @ 000001a64ddfbd00] [swscaler @ 000001a64dde1fc0] Forcing full internal H chroma due to input having non subsampled chroma
[swscaler @ 000001a64ddfbd00] [swscaler @ 000001a64ded4800] Forcing full internal H chroma due to input having non subsampled chroma
[swscaler @ 000001a64ddfbd00] [swscaler @ 000001a64dee1800] Forcing full internal H chroma due to input having non subsampled chroma
[swscaler @ 000001a64ddfbd00] [swscaler @ 000001a64deee7c0] Forcing full internal H chroma due to input having non subsampled chroma
[auto_scale_1 @ 000001a64f80d9c0] w:16 h:16 fmt:rgba sar:1/1 -> w:16 h:16 fmt:bgra sar:1/1 flags:0x0
[swscaler @ 000001a64ddfbd00] [swscaler @ 000001a64deb2dc0] Forcing full internal H chroma due to input having non subsampled chroma
[swscaler @ 000001a64ddfbd00] [swscaler @ 000001a64dde1fc0] Forcing full internal H chroma due to input having non subsampled chroma
[swscaler @ 000001a64ddfbd00] [swscaler @ 000001a64ded4800] Forcing full internal H chroma due to input having non subsampled chroma
[swscaler @ 000001a64ddfbd00] [swscaler @ 000001a64dee1800] Forcing full internal H chroma due to input having non subsampled chroma
[swscaler @ 000001a64ddfbd00] [swscaler @ 000001a64deee7c0] Forcing full internal H chroma due to input having non subsampled chroma
[auto_scale_1 @ 000001a64f80d9c0] w:16 h:16 fmt:rgba sar:1/1 -> w:16 h:16 fmt:bgra sar:1/1 flags:0x0
[swscaler @ 000001a64ddfbd00] [swscaler @ 000001a64deb2dc0] Forcing full internal H chroma due to input having non subsampled chroma
[swscaler @ 000001a64ddfbd00] [swscaler @ 000001a64dde1fc0] Forcing full internal H chroma due to input having non subsampled chroma
[swscaler @ 000001a64ddfbd00] [swscaler @ 000001a64ded4800] Forcing full internal H chroma due to input having non subsampled chroma
[swscaler @ 000001a64ddfbd00] [swscaler @ 000001a64dee1800] Forcing full internal H chroma due to input having non subsampled chroma
[swscaler @ 000001a64ddfbd00] [swscaler @ 000001a64deee7c0] Forcing full internal H chroma due to input having non subsampled chroma
[auto_scale_1 @ 000001a64f80d9c0] w:16 h:16 fmt:rgba sar:1/1 -> w:16 h:16 fmt:bgra sar:1/1 flags:0x0
Output #0, gif, to 'C:/Users/silva/OneDrive/Documentos/Desenhos/Krita Projects/Animações/Alex_idle_2.gif':
  Metadata:
    encoder         : Lavf59.27.100
  Stream #0:0, 0, 1/100: Video: gif, 1 reference frame, pal8(pc, gbr/unknown/unknown, progressive), 2640x2640 (0x0) [SAR 1:1 DAR 1:1], 0/1, q=2-31, 200 kb/s, 24 fps, 100 tbn
    Metadata:
      encoder         : Lavc59.37.100 gif
Clipping frame in rate conversion by 0.000008
frame=    1 fps=0.0 q=-0.0 size=       0kB time=00:00:00.01 bitrate=   0.0kbits/s speed=0.0737x    [image2 @ 000001a64d74f480] Opening 'C:/Users/silva/OneDrive/Documentos/Desenhos/Krita Projects/Animações/frame0014.png' for reading
[file @ 000001a64d7dda00] Setting default whitelist 'file,crypto,data'
[AVIOContext @ 000001a64dec6880] Statistics: 673202 bytes read, 0 seeks
frame=    1 fps=0.0 q=-0.0 size=       0kB time=00:00:00.01 bitrate=   0.0kbits/s speed=0.0105x    [gif @ 000001a64d751380] 1x1 image at pos (2639;2639) [area:2640x2640]
[image2 @ 000001a64d74f480] Opening 'C:/Users/silva/OneDrive/Documentos/Desenhos/Krita Projects/Animações/frame0015.png' for reading
[file @ 000001a64d7de040] Setting default whitelist 'file,crypto,data'
[AVIOContext @ 000001a64f854040] Statistics: 715751 bytes read, 0 seeks
[gif @ 000001a64d751380] 1x1 image at pos (2639;2639) [area:2640x2640]
[image2 @ 000001a64d74f480] Opening 'C:/Users/silva/OneDrive/Documentos/Desenhos/Krita Projects/Animações/frame0016.png' for reading
[file @ 000001a64d7dda00] Setting default whitelist 'file,crypto,data'
[AVIOContext @ 000001a64f854600] Statistics: 715751 bytes read, 0 seeks
[gif @ 000001a64d751380] 1129x1829 image at pos (670;1) [area:2640x2640]
frame=    4 fps=2.3 q=-0.0 size=     224kB time=00:00:00.14 bitrate=13100.1kbits/s speed=0.0809x    [image2 @ 000001a64d74f480] Opening 'C:/Users/silva/OneDrive/Documentos/Desenhos/Krita Projects/Animações/frame0017.png' for reading
[file @ 000001a64d7ddf40] Setting default whitelist 'file,crypto,data'
[AVIOContext @ 000001a64f854180] Statistics: 715751 bytes read, 0 seeks
[gif @ 000001a64d751380] 1x1 image at pos (2639;2639) [area:2640x2640]
[image2 @ 000001a64d74f480] Opening 'C:/Users/silva/OneDrive/Documentos/Desenhos/Krita Projects/Animações/frame0018.png' for reading
[file @ 000001a64d7ddd40] Setting default whitelist 'file,crypto,data'
[AVIOContext @ 000001a64f854bc0] Statistics: 693843 bytes read, 0 seeks
[gif @ 000001a64d751380] 1x1 image at pos (2639;2639) [area:2640x2640]
frame=    6 fps=2.4 q=-0.0 size=     256kB time=00:00:00.22 bitrate=9532.5kbits/s speed=0.0895x    [image2 @ 000001a64d74f480] Opening 'C:/Users/silva/OneDrive/Documentos/Desenhos/Krita Projects/Animações/frame0019.png' for reading
[file @ 000001a64d7de040] Setting default whitelist 'file,crypto,data'
[AVIOContext @ 000001a64f8548c0] Statistics: 693843 bytes read, 0 seeks
[gif @ 000001a64d751380] 1147x1838 image at pos (681;6) [area:2640x2640]
[image2 @ 000001a64d74f480] Opening 'C:/Users/silva/OneDrive/Documentos/Desenhos/Krita Projects/Animações/frame0020.png' for reading
[file @ 000001a64d7dda00] Setting default whitelist 'file,crypto,data'
[AVIOContext @ 000001a64f854d00] Statistics: 693843 bytes read, 0 seeks
[gif @ 000001a64d751380] 1x1 image at pos (2639;2639) [area:2640x2640]
frame=    8 fps=2.6 q=-0.0 size=     512kB time=00:00:00.30 bitrate=13981.0kbits/s speed=0.0957x    [image2 @ 000001a64d74f480] Opening 'C:/Users/silva/OneDrive/Documentos/Desenhos/Krita Projects/Animações/frame0021.png' for reading
[file @ 000001a64d7de7c0] Setting default whitelist 'file,crypto,data'
[AVIOContext @ 000001a64f8548c0] Statistics: 706110 bytes read, 0 seeks
[gif @ 000001a64d751380] 1x1 image at pos (2639;2639) [area:2640x2640]
[image2 @ 000001a64d74f480] Opening 'C:/Users/silva/OneDrive/Documentos/Desenhos/Krita Projects/Animações/frame0022.png' for reading
[file @ 000001a64d7dde40] Setting default whitelist 'file,crypto,data'
[AVIOContext @ 000001a64f854300] Statistics: 706110 bytes read, 0 seeks
[gif @ 000001a64d751380] 1151x1866 image at pos (696;4) [area:2640x2640]
frame=   10 fps=2.7 q=-0.0 size=     512kB time=00:00:00.39 bitrate=10754.6kbits/s speed=0.104x    [image2 @ 000001a64d74f480] Opening 'C:/Users/silva/OneDrive/Documentos/Desenhos/Krita Projects/Animações/frame0023.png' for reading
[file @ 000001a64d7ddd40] Setting default whitelist 'file,crypto,data'
[AVIOContext @ 000001a64f854a40] Statistics: 706110 bytes read, 0 seeks
[gif @ 000001a64d751380] 1x1 image at pos (2639;2639) [area:2640x2640]
    Last message repeated 1 times
frame=   12 fps=2.7 q=-0.0 size=     768kB time=00:00:00.47 bitrate=13386.1kbits/s speed=0.106x    [gif @ 000001a64d751380] 1170x1891 image at pos (716;4) [area:2640x2640]
[gif @ 000001a64d751380] 1x1 image at pos (2639;2639) [area:2640x2640]
frame=   14 fps=2.7 q=-0.0 size=    1024kB time=00:00:00.55 bitrate=15252.0kbits/s speed=0.107x    [gif @ 000001a64d751380] 1x1 image at pos (2639;2639) [area:2640x2640]
[gif @ 000001a64d751380] 1170x1891 image at pos (716;4) [area:2640x2640]
frame=   16 fps=2.8 q=-0.0 size=    1024kB time=00:00:00.64 bitrate=13107.2kbits/s speed=0.112x    [gif @ 000001a64d751380] 1x1 image at pos (2639;2639) [area:2640x2640]
    Last message repeated 1 times
frame=   18 fps=2.8 q=-0.0 size=    1280kB time=00:00:00.72 bitrate=14563.6kbits/s speed=0.112x    [gif @ 000001a64d751380] 1151x1866 image at pos (696;4) [area:2640x2640]
[gif @ 000001a64d751380] 1x1 image at pos (2639;2639) [area:2640x2640]
frame=   20 fps=2.8 q=-0.0 size=    1536kB time=00:00:00.80 bitrate=15728.6kbits/s speed=0.113x    [gif @ 000001a64d751380] 1x1 image at pos (2639;2639) [area:2640x2640]
[gif @ 000001a64d751380] 1147x1838 image at pos (681;6) [area:2640x2640]
frame=   22 fps=2.9 q=-0.0 size=    1536kB time=00:00:00.89 bitrate=14138.1kbits/s speed=0.116x    [gif @ 000001a64d751380] 1x1 image at pos (2639;2639) [area:2640x2640]
    Last message repeated 1 times
frame=   24 fps=2.9 q=-0.0 size=    1536kB time=00:00:00.97 bitrate=12972.1kbits/s speed=0.116x    [Parsed_paletteuse_0 @ 000001a64b967e80] [framesync @ 000001a64e1e6088] Sync level 0
[out_0_0 @ 000001a64d9deac0] EOF on sink link out_0_0:default.
No more output streams to write to, finishing.
frame=   24 fps=2.8 q=-0.0 Lsize=    1781kB time=00:00:00.97 bitrate=15042.1kbits/s speed=0.112x    
[AVIOContext @ 000001a64d74f040] Statistics: 2757 bytes written, 0 seeks, 14 writeouts
video:1781kB audio:0kB subtitle:0kB other streams:0kB global headers:0kB muxing overhead: 0.001097%
Input file #0 (C:/Users/silva/OneDrive/Documentos/Desenhos/Krita Projects/Animações/frame%04d.png):
  Input stream #0:0 (video): 24 packets read (16567329 bytes); 24 frames decoded; 
  Total: 24 packets (16567329 bytes) demuxed
Input file #1 (C:/Users/silva/OneDrive/Documentos/Desenhos/Krita Projects/Animações/palette.png):
  Input stream #1:0 (video): 1 packets read (1032 bytes); 1 frames decoded; 
  Total: 1 packets (1032 bytes) demuxed
Output file #0 (C:/Users/silva/OneDrive/Documentos/Desenhos/Krita Projects/Animações/Alex_idle_2.gif):
  Output stream #0:0 (video): 24 frames encoded; 24 packets muxed (1823830 bytes); 
  Total: 24 packets (1823830 bytes) muxed
[AVIOContext @ 000001a64d754300] Statistics: 1823850 bytes written, 0 seeks, 7 writeouts
25 frames successfully decoded, 0 decoding errors
[AVIOContext @ 000001a64d9a5d40] Statistics: 1032 bytes read, 0 seeks
